				<svg t="1622960923060" class="icon mr-0.5" viewBox="0 0 1024 1024" version="1.1" xmlns="http://www.w3.org/2000/svg" p-id="22230" width="24" height="24"><path d="M938.642 512c0 235.618-190.994 426.64-426.642 426.64S85.358 747.618 85.358 512c0-235.648 190.994-426.674 426.642-426.674S938.642 276.352 938.642 512z" fill="#FECD57" p-id="22232"></path><path d="M170.668 512c0-221.242 168.4-403.144 383.988-424.55A436.758 436.758 0 0 0 512 85.324C276.352 85.326 85.358 276.352 85.358 512c0 235.618 190.994 426.64 426.642 426.64 14.406 0 28.626-0.718 42.656-2.126C339.068 915.112 170.668 733.21 170.668 512z" fill="#F5BA45" p-id="22233"></path></svg>